<?xml version="1.0" standalone="no"?>
<!DOCTYPE svg PUBLIC "-//W3C//DTD SVG 20010904//EN"
 "http://www.w3.org/TR/2001/REC-SVG-20010904/DTD/svg10.dtd">
<svg version="1.0" xmlns="http://www.w3.org/2000/svg"
 width="240.000000pt" height="90.000000pt" viewBox="0 0 240.000000 90.000000"
 preserveAspectRatio="xMidYMid meet">

<g transform="translate(0.000000,90.000000) scale(0.100000,-0.100000)"
fill="#000000" stroke="none">
<path d="M863 731 c-141 -48 -223 -187 -194 -328 11 -59 58 -140 93 -162 17
-11 18 -6 18 74 l0 86 28 -15 c15 -7 44 -18 65 -24 l38 -11 -31 35 c-65 74
-18 174 82 174 25 0 41 -10 77 -49 l46 -50 54 75 54 75 -33 34 c-27 28 -37 32
-52 24 -24 -13 -38 -4 -38 26 0 19 -9 26 -47 39 -59 20 -95 20 -160 -3z"/>
<path d="M1365 737 l-40 -13 -3 -112 c-1 -62 0 -112 3 -112 4 0 20 14 37 30
24 25 38 30 76 30 42 0 50 -4 92 -48 57 -60 80 -121 80 -216 l0 -70 30 29 c51
49 80 119 80 196 0 81 -19 139 -65 195 -65 79 -197 120 -290 91z"/>
<path d="M1251 379 c-52 -70 -53 -73 -38 -98 9 -14 22 -27 29 -29 7 -1 31 32
55 77 42 77 42 80 25 101 l-18 22 -53 -73z"/>
</g>
</svg>
